<?xml version="1.0" encoding="UTF-8"?>
<svg id="katman_2" data-name="katman 2" xmlns="http://www.w3.org/2000/svg" viewBox="0 0 1145.85 1145.85">
  <defs>
    <style>
      .cls-1 {
        fill: #fff;
      }
    </style>
  </defs>
  <g id="Layer_1" data-name="Layer 1">
    <path class="cls-1" d="m1119.34,438.58l-109.96-16.02-21.51-51.97,66.42-89.01c9.2-12.31,7.95-29.54-2.95-40.43l-146.68-146.72c-10.89-10.89-28.17-12.19-40.47-2.91l-88.97,66.46-51.93-21.51-15.98-109.92c-2.22-15.25-15.29-26.55-30.67-26.55h-207.45c-15.37,0-28.45,11.3-30.67,26.51l-15.98,109.96-51.93,21.51-89.01-66.46c-12.43-9.28-29.54-7.99-40.47,2.91L94.46,241.14c-10.89,10.89-12.15,28.12-2.91,40.43l66.42,89.05-21.51,51.93-109.96,16.02c-15.21,2.22-26.51,15.29-26.51,30.67l.04,207.45c0,15.41,11.3,28.45,26.55,30.67l109.84,15.9,21.51,52.01-66.42,88.97c-9.24,12.35-7.99,29.58,2.91,40.47l146.72,146.64c10.53,10.49,28.69,11.78,40.55,2.91l88.93-66.34,51.93,21.51,15.98,109.92c2.22,15.21,15.29,26.51,30.67,26.51h207.45c15.37,0,28.45-11.3,30.67-26.51l15.98-109.92,51.93-21.51,89.01,66.38c12.35,9.28,29.54,7.99,40.43-2.91l146.72-146.72c10.89-10.89,12.15-28.12,2.91-40.47l-66.58-89.18,21.39-51.73,110.2-15.98c15.25-2.22,26.55-15.25,26.55-30.67v-207.4c0-15.37-11.3-28.45-26.51-30.67Zm-687.87,232.62c15.33,15.33,15.33,40.19,0,55.52-7.67,7.67-17.71,11.5-27.76,11.5s-20.09-3.83-27.76-11.5l-126.02-126.02c-15.33-15.33-15.33-40.19,0-55.52l126.02-126.02c15.33-15.33,40.19-15.33,55.52,0,15.33,15.33,15.33,40.19,0,55.52l-98.26,98.26,98.26,98.26Zm206.23-216.24l-52.74,252.03c-3.87,18.52-20.18,31.23-38.37,31.23-2.66,0-5.37-.28-8.07-.85-21.22-4.44-34.82-25.22-30.38-46.44l52.74-252.03c4.44-21.27,25.1-35.02,46.44-30.38,21.22,4.44,34.82,25.22,30.38,46.44Zm258.21,145.75l-125.98,126.02c-7.67,7.67-17.71,11.5-27.76,11.5s-20.09-3.83-27.76-11.5c-15.33-15.33-15.33-40.19,0-55.52l98.21-98.26-98.21-98.26c-15.33-15.33-15.33-40.19,0-55.52s40.19-15.33,55.52,0l125.98,126.02c15.33,15.33,15.33,40.19,0,55.52Z"/>
  </g>
</svg>